/* XPM */
static char *a287f942cdbd4db4a51900a9ddbb9c8fDypBV2MaPHO0bOky[] = {
/* columns rows colors chars-per-pixel */
"47 47 193 2 ",
"   c #FFCB8D",
".  c #141B1B",
"X  c #1A1E1D",
"o  c #1D211E",
"O  c #1E281D",
"+  c #20231F",
"@  c #242D1F",
"#  c #23311F",
"$  c #29311F",
"%  c #1F1E20",
"&  c #252521",
"*  c #2A2225",
"=  c #2C2A23",
"-  c #2F2328",
";  c #322D25",
":  c #35242B",
">  c #3C272E",
",  c #3B282C",
"<  c #2E3C21",
"1  c #363126",
"2  c #3B3625",
"3  c #3B3229",
"4  c #333B21",
"5  c #3F2730",
"6  c #412D2D",
"7  c #43352B",
"8  c #443A2B",
"9  c #493C2B",
"0  c #49382A",
"q  c #452932",
"w  c #4C2B35",
"e  c #552D3A",
"r  c #582E3B",
"t  c #4E3234",
"y  c #4E3F30",
"u  c #533B32",
"i  c #5E313E",
"p  c #5B3D37",
"a  c #583D2E",
"s  c #623C35",
"d  c #63343F",
"f  c #3C4523",
"g  c #4B432A",
"h  c #444D25",
"j  c #50472B",
"k  c #59472D",
"l  c #435D27",
"z  c #4A5626",
"x  c #5A5C2B",
"c  c #514430",
"v  c #5B4334",
"b  c #644B36",
"n  c #6C4F37",
"m  c #674839",
"M  c #684639",
"N  c #7B4A39",
"B  c #764B3A",
"V  c #6C513A",
"C  c #6C5935",
"Z  c #745636",
"A  c #765836",
"S  c #71563C",
"D  c #78553D",
"F  c #75583B",
"G  c #4B6529",
"H  c #566129",
"J  c #5A6529",
"K  c #5D692A",
"L  c #64642E",
"P  c #696B2F",
"I  c #69752C",
"U  c #727E2E",
"Y  c #6A6836",
"T  c #796835",
"R  c #643341",
"E  c #6B3445",
"W  c #6F3846",
"Q  c #7B384C",
"!  c #753949",
"~  c #6F4242",
"^  c #794646",
"/  c #775540",
"(  c #7C5641",
")  c #7C5A40",
"_  c #8E513F",
"`  c #855C3F",
"'  c #8D653E",
"]  c #8D6A3C",
"[  c #86643B",
"{  c #916C3D",
"}  c #803A4F",
"|  c #863C52",
" . c #8C3D55",
".. c #824C46",
"X. c #804B48",
"o. c #8A5440",
"O. c #845C43",
"+. c #875A48",
"@. c #8B5948",
"#. c #945D45",
"$. c #9C5944",
"%. c #935B4B",
"&. c #985E4F",
"*. c #975541",
"=. c #8C4153",
"-. c #8E4B51",
";. c #924356",
":. c #944B54",
">. c #945152",
",. c #985652",
"<. c #9A5D51",
"1. c #A55F48",
"2. c #A65A57",
"3. c #AB5C5A",
"4. c #8F6847",
"5. c #8F6149",
"6. c #8E6446",
"7. c #986D40",
"8. c #94634A",
"9. c #9C674B",
"0. c #99674A",
"q. c #9D724B",
"w. c #9C6451",
"e. c #A3644B",
"r. c #A46E4F",
"t. c #A86F4E",
"y. c #A16F46",
"u. c #B1694E",
"i. c #AD7A47",
"p. c #A1724E",
"a. c #A57445",
"s. c #B07C47",
"d. c #B3784E",
"f. c #B26F52",
"g. c #AB7150",
"h. c #B37252",
"j. c #BA7152",
"k. c #BB7B54",
"l. c #BC725A",
"z. c #C37D56",
"x. c #C2755D",
"c. c #C57D5A",
"v. c #648A2F",
"b. c #65822E",
"n. c #71862F",
"m. c #658D30",
"M. c #6A8E30",
"N. c #7D8531",
"B. c #768F31",
"V. c #6B9131",
"C. c #7F9D34",
"Z. c #7DA735",
"A. c #7EA835",
"S. c #838E32",
"D. c #828A3D",
"F. c #8D9B34",
"G. c #869432",
"H. c #919F34",
"J. c #85AA36",
"K. c #82A034",
"L. c #95A335",
"P. c #91AF37",
"I. c #9EAC37",
"U. c #98A636",
"Y. c #92B037",
"T. c #96B238",
"R. c #9EB538",
"E. c #A0AF37",
"W. c #A3B539",
"Q. c #A5B939",
"!. c #ACBB3A",
"~. c #A9B739",
"^. c #A8894D",
"/. c #BF834D",
"(. c #C5894D",
"). c #CC8D4F",
"_. c #C58451",
"`. c #CC825C",
"'. c #CE8956",
"]. c #D3865F",
"[. c #D6895E",
"{. c #D98D5D",
"}. c #D19150",
"|. c #DC9456",
" X c #DC915B",
".X c #E89F57",
"XX c #E4955E",
"oX c #E39958",
"OX c #EC9D5D",
"+X c #E29B55",
"@X c #EEA259",
"#X c #F4A55C",
"$X c #FCAB5D",
/* pixels */
"      . . . . . . . . .                                               . . . . . . . . .       ",
"      . . . . . . . . .                                               . . . . . . . . .       ",
"      . . & 3 8 ; & . . .                                           . . . & 1 8 1 = . .       ",
"      . o 3 v S c = . . . . . . . . . . . . . . . . . . . . . . . . . . . = c V v 3 . .       ",
"      % o 9 ) q.V 7 X . X X X X X X X X X X X o X X X X X X X X % . % . % 3 V q.) c X %       ",
"    - 5 q m +.q.( p q t u v v v v v v v v v v v v v v v v v v v v v u t q p ( q.+.m q 5 -     ",
". . : r W X.5.p.%.^ W X.%.9.e.9.9.9.9.9.9.9.9.9.9.9.9.9.9.9.9.9.9.9.%.X.W ^ %.p.4.^ W r 5 . . ",
". . 5 E ;.>.w.p.<.:.;.3.x.].].].].].].].].].].].].].].].].].].].].].x.3.;.:.<.p.w.:.;.E 5 . . ",
". . q E  .:.,.<.,.;.;.3.x.].].].].].].].].].].].].].].].].].].].].].x.3.;.;.>.<.>.:. .E 5 . . ",
". . 5 E  . .;.:.;.;.;.3.x.[.].].].].].].].].].].].].].].].].].].].].x.3.;.;.;.:.:.;. .E 5 . . ",
". . 5 R |  . . . . .;.2.j.c.c.c.`.`.`.`.c.c.z.c.`.z.c.z.c.c.z.c.`.`.l.2.=. . . . . .| R 5 . . ",
". . : w i W }  .Q E R ..1.x.x.j.j.j.j.h.e.#.O.O.O.O.O.O.O.O.O.%.e.f.1...R E Q  .} W R w : . . ",
"    * - : e W  .E w > s _ 1.1.1.1.1.1.*.B a 7 3 7 6 7 7 7 7 7 u N $._ s > w E  .! e : - *     ",
"      . . 5 E Q e : % 0 N $.$.$.$.*._ N a 2 @ @ @ @ @ @ O o . ; s _ N 0 X : r Q R 5 . .       ",
"      . . - q e > * % u _ u.u.u.e._ M a k x x x x H x J z 4 o 1 M e.o.a % * q e q - . .       ",
"      . . % * - % X & v 8.z.c.c.h.` 0 7 x n.G.F.F.F.G.G.U z @ 3 D j.8.p % X % * * % . .       ",
"      . . . . . . . + m t.[.`.z.g.D g f I L.!.!.!.!.W.I.S.K 2 y @._.t.m & . . . . . . .       ",
"        . . . . . . @ n d.XXd.0.D C J P S.I.!.!.!.E.G.U P C n O.d. Xd.n & . . . . . .         ",
"                . . @ B (.+Xa.b 8 J N.L.I.Q.!.!.!.U.I h g S q.k.{.@X/.Z & . .                 ",
"                  . + A (.+X{ 0 = J F.!.!.Q.Q.!.!.H.L $ 3 ` z.XXOX$X(.A & .                   ",
"                  . & A (..X{ a # J F.!.R.T.T.R.!.H.K $ 7 ` '.OX#X$X(.Z & .                   ",
"                  . @ A (..X{ 9 @ J F.!.T.J.J.T.Q.H.K $ 7 ' |.$X$X$X(.Z & .                   ",
"                  . * A (..X{ 9 @ J F.Q.Y.A.A.Y.Q.L.I f j ] (.+X@X$X(.Z @ .                   ",
"                  . @ A ).@X{ 9 @ K F.Q.Y.A.A.Y.Q.I.G.I P T [ a.).#X(.Z & .                   ",
"                  . @ A (..Xy.9 @ J F.Q.Y.A.Z.Y.Q.Q.I.L.S.L g b i.@X_.Z @ .                   ",
"                  . * A (..X{ 9 $ J H.Q.T.J.J.Y.R.Q.!.!.F.J @ 8 7..X(.A + .                   ",
"                  X + A (..X{ 0 $ J H.~.R.T.Y.Y.P.Y.R.!.F.J @ 9 7..X(.Z @ .                   ",
"                  . @ A (..X7.9 @ J H.!.Q.Q.R.Y.J.J.Y.Q.F.J @ g { @X(.Z * .                   ",
"                . . + A (.@X{ 9 @ J F.Q.!.!.Q.Y.A.A.Y.Q.F.J $ 0 7.@X(.A & . .                 ",
"        . . . . . . + ` (.@X{ 9 $ J H.!.!.!.Q.Y.A.A.Y.Q.F.J @ 9 { @X(.Z & . . . . . .         ",
"      . . . . . . . @ A (.@X{ 9 @ J F.!.!.!.W.P.A.A.Y.Q.F.J @ 9 { @X(.A & . . . . . . .       ",
"      . . + = ; @ o + A (.@Xi.Z j P N.F.L.E.Y.K.M.v.B.G.N.L j Z i.@X(.A & o & ; = + . .       ",
"      . % = c v g = & A (.#X}.^.{ T L I n.Z.Z.b.G l z H L T { s.}.#X(.A & = 8 v c 1 . .       ",
"      . X 8 V 4.v 1 & F (.$X#X@X).] g $ G M.V.G $ O O O g { }.@X#X$X(.A & 1 b 4.S 8 . %       ",
"    * - : v O.q.) u 5 O._.#X#X#X|.6.3 O l v.v.l # % 1 8 n a.XX#X#X#X_.` 5 u / q.) v : - *     ",
". . : w i ^ 5.p.+.~ R 8.z.XXXXXX'.6.3 # l v.v.G # $ k ] i._.XXXXXXXXz.#.R ~ +.q.4.^ i w : % X ",
". . > R | :.w.p.&.:.=.2.x.[.[.[.k.( 3 # l m.m.G # 2 [ }..XXX{.[.[.[.x.2.=.:.8.p.w.>.| R > . . ",
". . 5 E =.:.<.w.@.^ ! &.x.].].]._.5.m c Y D.B.Y j m y.|.OXXX[.].].].l.,.! ^ -.9.<.:. .E 5 . . ",
". . q E =.;.:.>.! i w ..f.].].].`.h.8.6.q.^.^.q.6.0.k.{. X{.[.].].].f...w i ^ >.:.;. .E 5 . . ",
". . 5 E  . .;.=.i , * M t.].].].].`.`.`.`.`.`.`.`.`.`.].].].].].].].r.M & > d =.;.;.;.E 5 . . ",
". . : e E Q | | i : % y / 9.9.9.0.9.9.9.9.9.9.9.9.9.9.9.9.9.9.9.0.0.( 0 % : i  .| ! E e > % . ",
"    - > q i Q  .i : X ; 0 v v v v v v v v v v v v v v v v v v v v v t ; % : i | Q i 5 : -     ",
"      % % q W | d : . . X X X X X X o X X X X X X X X X X X X X % X . . . : i  .E q % %       ",
"      . . - w E q * . . . . . . . . . . . . . . . . . . . . . . . . . . . * q R w : % .       ",
"      . . % : 5 - % . . .                                           . . . % - 5 - * . .       ",
"      . . . . . . . . .                                               . . . . . . . . .       ",
"      . . . . . . . . .                                               . . . . . . . . .       "
};
