/* XPM */
static char *_7ab38a1b4e94f59f4966d7ebb11445bGrv53BTjlCNFMWkQ[] = {
/* columns rows colors chars-per-pixel */
"47 47 8 1 ",
"  c None",
". c #141B1B",
"X c #4A7F4B",
"o c #A16240",
"O c #E67C44",
"+ c #74A334",
"@ c #ADBC3A",
"# c #FFAD5D",
/* pixels */
"           ..    ..        ..      ..          ",
"        ...##....##........##......##...       ",
"      ..###O######O##OOO###O########O###..     ",
"     .O#####O####O####O#####O######O#####O.    ",
"    .O##############O###############O#####O.   ",
"   .OO###############O###############O#####O.  ",
"  .O########################################O. ",
"  .OO######################################OO. ",
" .OO######O###############O###############O#OO.",
" .O######O###############O###############O###O.",
" .OOO######################################OOO.",
" .OO########################################OO.",
" .O##########################################O.",
" .OO########################################OO.",
" .O##########################################O.",
" .OO########################################OO.",
" .OOO######################################OOO.",
" .OO########################################OO.",
" .O##########################################O.",
" .OOO######################################OOO.",
" .OOO###############O###############O#######OO.",
" .O##O###############O###############O#######O.",
" .OO########################################OO.",
" .O##########################################O.",
" .O#######O###############O###############O##O.",
" .OO#####O###############O###############O##OO.",
" .OOO######################################OOO.",
" .OO########################################OO.",
" .OO########################################OO.",
" .OOO######################################OOO.",
" .OO########################################OO.",
" .O##########################################O.",
" .OO########################################OO.",
" .O##########################################O.",
" .OO########################################OO.",
" oO###O##################################O###Oo",
" oO#OO##############O###############O#####O##Oo",
" oOOOO###############O###############O#####OOOo",
" oOOO##O################################O##OOOo",
" oOOOOO#####OO####OO########OO####OO#####OOOOOo",
" oOOOOOOO#OOO######OO##OO#OOO######OO##OOOOOOOo",
"  o#OOOOOO#OOO#OOOOOO#OOOO#OOOOO#OOOO#OOOOOOOo ",
"  o#O#O#OOOOOOOOO#OOOOOOO#OOOOOOOOOOOOO#OOO#Oo ",
"   oO#O#O#O#O#O#O#O#O#O#O#O#O#O#O#O#O#O#O#O#o  ",
"    ooO#O#O#O#O#O#O#O#O#O#O#O#O#O#O#O#O#O#oo   ",
"      oooooooooooooooooooooooooooooooooooo     ",
"                                               ",
"                                               ",
};
