/* XPM */
static char *_81868af866144dfacb34550b3c441f83DVtYS11E6Jw34qL[] = {
/* columns rows colors chars-per-pixel */
"51 47 189 2 ",
"   c #FFCB8D",
".  c #141B1B",
"X  c #151C1C",
"o  c #161D1C",
"O  c #161D1D",
"+  c #171E1D",
"@  c #171F1E",
"#  c #181F1E",
"$  c #181F1F",
"%  c #18201F",
"&  c #19211F",
"*  c #192120",
"=  c #1A2120",
"-  c #1A2220",
";  c #1C2322",
":  c #1B2422",
">  c #1C2422",
",  c #1D2624",
"<  c #1F2725",
"1  c #1F2825",
"2  c #202725",
"3  c #202825",
"4  c #202826",
"5  c #212826",
"6  c #222927",
"7  c #212A27",
"8  c #222B28",
"9  c #232B28",
"0  c #232C29",
"q  c #242C28",
"w  c #242D29",
"e  c #252D2A",
"r  c #252E2A",
"t  c #262F2B",
"y  c #272F2B",
"u  c #27312C",
"i  c #28302C",
"p  c #29312D",
"a  c #29332F",
"s  c #2B322E",
"d  c #2B332F",
"f  c #2B342F",
"g  c #2B3530",
"h  c #2D3530",
"j  c #2E3731",
"k  c #2E3933",
"l  c #2F3A34",
"z  c #303832",
"x  c #323933",
"c  c #303A34",
"v  c #313C35",
"b  c #323C36",
"n  c #323D36",
"m  c #323D37",
"M  c #343D36",
"N  c #343D37",
"B  c #353E37",
"V  c #363F38",
"C  c #344039",
"Z  c #354039",
"A  c #37433B",
"S  c #38413A",
"D  c #39433B",
"F  c #3B433B",
"G  c #38443C",
"H  c #39453D",
"J  c #3A453D",
"K  c #3A463E",
"L  c #3C463D",
"P  c #3D463E",
"I  c #3C473E",
"U  c #3D473E",
"Y  c #3F473E",
"T  c #3D483F",
"R  c #3E483F",
"E  c #3E4940",
"W  c #3F4940",
"Q  c #414B42",
"!  c #404D43",
"~  c #424C42",
"^  c #424D43",
"/  c #434D43",
"(  c #454D43",
")  c #444E44",
"_  c #454F45",
"`  c #425045",
"'  c #435046",
"]  c #485146",
"[  c #495247",
"{  c #455348",
"}  c #465449",
"|  c #475449",
" . c #4A5449",
".. c #4B5449",
"X. c #48574B",
"o. c #4B574B",
"O. c #4C5449",
"+. c #4D584C",
"@. c #4D594D",
"#. c #4E594D",
"$. c #4C5A4E",
"%. c #4C5B4E",
"&. c #4C5B4F",
"*. c #4F5A4E",
"=. c #4F5B4E",
"-. c #50594D",
";. c #505B4E",
":. c #505B4F",
">. c #535B4F",
",. c #505C4F",
"<. c #515C4F",
"1. c #4E5D50",
"2. c #515F52",
"3. c #555E51",
"4. c #536153",
"5. c #556154",
"6. c #556355",
"7. c #576354",
"8. c #566455",
"9. c #556657",
"0. c #596254",
"q. c #586556",
"w. c #596557",
"e. c #5A6657",
"r. c #596858",
"t. c #586859",
"y. c #5B6858",
"u. c #5A6B5B",
"i. c #5D6959",
"p. c #5D695A",
"a. c #5F695A",
"s. c #5E6A5A",
"d. c #5F6A5B",
"f. c #5A6C5C",
"g. c #5E6D5D",
"h. c #5E6F5E",
"j. c #606D5D",
"k. c #616E5D",
"l. c #666F5F",
"z. c #5F7160",
"x. c #607260",
"c. c #607261",
"v. c #637261",
"b. c #647362",
"n. c #627462",
"m. c #677463",
"M. c #677563",
"N. c #657664",
"B. c #667664",
"V. c #667765",
"C. c #687261",
"Z. c #687563",
"A. c #697563",
"S. c #6A7462",
"D. c #697664",
"F. c #697765",
"G. c #6A7765",
"H. c #6D7665",
"J. c #697966",
"K. c #6A7A67",
"L. c #6C7A67",
"P. c #6D7A67",
"I. c #6A7A68",
"U. c #6D7C69",
"Y. c #6D7D69",
"T. c #6E7D69",
"R. c #6F7F6B",
"E. c #707967",
"W. c #727F6B",
"Q. c #747D6A",
"!. c #757F6B",
"~. c #72806C",
"^. c #73806D",
"/. c #73826E",
"(. c #74816D",
"). c #74826E",
"_. c #75836E",
"`. c #75836F",
"'. c #76846F",
"]. c #79836F",
"[. c #778570",
"{. c #798772",
"}. c #7E8873",
"|. c #7E8B75",
" X c #828D77",
".X c #848F79",
"XX c #86917A",
"oX c #88927B",
"OX c #8D977F",
/* pixels */
"        [.[.[.[.{.'.'.'.{.'.'.{.'.'.'.{.[.[.[.[.[.[.[.[.[.[.[.[.[.[.[.[.[.[.[.[.[.[.[.[.[.[.[.        ",
"        [.[.[.[.'.'.{.'.{.'.'.{.'.{.'.'.[.[.[.[.[.[.[.[.[.[.[.[.[.[.[.[.[.[.[.[.[.[.[.[.[.[.[.        ",
"      [.[.[.[.[.'.{.'.{.'.'.'.'.{.'.{.'.[.[.[.[.[.[.[.[.[.[.[.[.[.[.[.[.[.[.[.[.[.[.[.[.[.[.[.[.      ",
"    [.[.[.[.[.[.'.{.'.'.'.{.{.'.'.'.{.'.[.[.[.[.[.[.[.[.[.[.[.[.[.[.[.'.[.[.[.[.[.[.[.[.[.[.[.[.[.    ",
"'.'.'.{.[.'.{.'.].[.[.'.'.].`.{.'.{.].].[.[.].].].'.].{.[.'.'.[.].[.[.'.'.'.'.].[.[.'.{.'.'.].[.[.[.[.",
"{.{.'.'.`.`.`.`.`.`.`.`.'.`.`.`.`.`.`.`.'.'.`.`.'.`.`.`.'.'.'.'.`.'.'.'.'.'.'.'.'.'.`.`.`.'.`.`.[.[.[.",
"'.'.W.A.k.q.q.q.q.e.e.q.q.q.q.e.q.q.q.q.9.q.q.q.q.q.q.q.q.q.9.q.q.q.q.q.q.q.9.q.q.q.q.e.q.q.k.G.~.'.[.",
"'.{.P.i.#.R R R W P W R R R P P R R R R R R W R R R R P Q R R R R P Q R R R R R R R W P R R #.i.K.{.[.",
"'.{.m.#.D 9 9 9 9 9 9 9 q q q q 9 9 9 9 9 9 9 9 0 9 9 9 9 9 9 9 9 9 9 9 9 9 9 9 9 9 9 9 9 6 L <.S.[.[.",
"G.G.i...V 9 9 9 9 9 9 9 q 2 ; $ . . . . . . . . . . . . . . . . . . . . . . . . . . . . . . s / q.G.G.",
":.#.#. .] ( ( ( ( ( ( ( ( F d 2 . . . . . . . . . . . . . . . . . . . . . . . . . . . . . . q M _ :.#.",
"M M P  .0.l.l.l.l.l.l.l.l.3.Y i . . . . . . . . . . . . . . . . . . . . . . . . . . . . . . : r h M M ",
"$ $ h O.S.oXoXoXoXoXoXoXoXE.:.z . . . . . . . . . . . . . . . . . . . . . . . . . . . . . . . % % o $ ",
". . s O.H.OXOXOXOXOXOXOXOXQ.>.x . . . . . . . . . . . . . . . . . . . . . . . . . . . . . . . . . o . ",
". . s O.H.OXOXOXOXOXOXOXOXQ.:.x . . . . . . . . . . . . . . . . . . . . . . . . . . . . . . . . . . . ",
". . s O.H.OXOXOXOXOXOXOXOXQ.>.x . . . . . . . . . . . . . . . . . . . . . . . . . . . . . . . . . . . ",
". . s O.H.OXOXOXOXOXOXOXOXQ.3.V & & - - ; & ; & > & ; & & $ . . . . . . . . . . . . . . . . . . . . . ",
". . s O.H.OXOXOXOXOXOXOXOX[.p._ k c m M M Z Z M M S M M d 6 & . . . . . . . . . . . . . . . . . . . . ",
". . d O.H.OXOXOXOXOXOXOXOX}.G.5.' } o.:.<.<.<.<.<.<.<.:.P d ; . . . . . . . . . . . . . . . . . . . . ",
". . d O.H.OXOXOXOXOXOXOXOX XW.n.t.g.v.G.P.P.P.P.P.P.P.A.:.D < . . . . . . . . . . . . . . . . . . . . ",
". . s O.H.OXOXOXOXOXOXOXOXXX[.I.x.V.Y./.'.{.'.'.{.'.'.~.7.L 6 . . . . . . . . . . . . . . . . . . . . ",
". . s O.H.OXOXOXOXOXOXOXOX X[.I.x.V.Y./.'.'.{.'.'.'.{.~.7.L 2 . . . . . . . . . . . . . . . . . . . . ",
". . s O.H.OXOXOXOXOXOXOXOXXX[.I.x.V.Y./.{.{.'.'.'.{.'.~.7.L 6 . . . . . . . . . . . . . . . . . . . . ",
". . s O.H.OXOXOXOXOXOXOXOX X[.I.x.V.Y./.'.'.'.{.'.'.].~.7.L 2 . . . . . . . . . . . . . . . . . . . . ",
". . s O.H.OXOXOXOXOXOXOXOX X[.I.h.V.Y./.'.{.{.'.{.'.'./.7.L 6 . . . . . . . . . . . . . . . . . . . . ",
". . s O.H.OXOXOXOXOXOXOXOXXX[.I.n.V.Y./.'.'.'.'.{.'.'.~.7.P 6 . . . . . . . . . . . . . . . . . . . . ",
". . s O.H.OXOXOXOXOXOXOXOXXX[.I.x.V.Y./.{.'.'.{.'.'.'.~.7.L 1 . . . . . . . . . . . . . . . . . . . . ",
". . s O.H.OXOXOXOXOXOXOXOX X[.I.x.V.Y./.{.'.'.{.'.{.{.~.q.Q i : > > : : > > : & % o . . . . . . . . . ",
". . s O.H.OXOXOXOXOXOXOXOXXX[.I.x.V.Y./.{.'.'.'.'.'.'./.k.+.H m m m l m v m k u 1 % . . . . . . . . . ",
". . s O.H.OXOXOXOXOXOXOXOXXX[.I.x.V.Y./.'.'.{.'.{.{.'.'.A.r.#.{ } } } } { { ` C u & . . . . . . . . . ",
". . s O.H.OXOXOXOXOXOXOXOX X[.I.x.V.Y./.'.{.'.{.'.'.'.'.Y.N.h.f.f.f.f.f.f.f.9.` l : . . . . . . . . . ",
". . s O.H.OXOXOXOXOXOXOXOXXX'.K.x.V.Y./.'.{.'.'.'.{.'.'.~.K.n.h.z.h.n.h.x.h.f.{ m : . . . . . . . . . ",
". . s O.H.OXOXOXOXOXOXOXOX.X[.L.x.V.~./.'.[.[.[.[.[.[.'.~.N.z.z.z.z.z.z.x.x.f.X.C & . . . . . . . . . ",
". . s O.H.OXOXOXOXOXOXOXOX.X[.I.x.V.K./.[.[.[.[.[.[.[.'.~.V.z.z.z.z.z.z.f.x.f.W C : . . . . . . . . . ",
". . s O.H.OXOXOXOXOXOXOXOX.X[.I.x.N.~./.[.[.[.[.[.[.[.'.~.N.N.z.z.z.z.z.x.x.f.{ C & % . . . . . . . . ",
". . s O.H.OXOXOXOXOXOXOXOX.X[.I.x.N.K./.[.[.[.[.[.[.[.'.~.~.z.z.z.z.z.z.x.x.f.{ k & . . . . . . . . . ",
". . s O.H.OXOXOXOXOXOXOXOX.X[.I.x.V.~./.[.[.[.[.[.[.[.'.~.V.z.z.z.z.z.z.z.z.f.{ C : . . . . . . . . . ",
". . d O.H.OXOXOXOXOXOXOXOX.X[.I.x.V.K./.[.[.[.[.[.[.[.'.~.V.z.x.z.z.z.z.z.z.f.{ l & . . . . . . . . . ",
". . i ] C..XXXXXXXXXXXXXXX}.`.G.x.V.~./.[.[.[.[.[.[.[.'.~.V.z.x.z.z.z.z.z.z.f.{ C & . . . . . . . . . ",
". . i ( j.[.{.{.{.{.{.{.{.[.L.V.x.V.K./.[.[.[.[.[.[.[.'.~.V.N.x.z.z.z.z.z.z.f.X.C & . . . . . . . . . ",
". . 0 E 9.Y.I.I.I.Y.Y.Y.L.I.V.n.v.V.I./.'.'.[.[.'.{.{.'.Y.K.n.z.z.h.h.x.h.x.f.{ l & . . . . . . . . . ",
". . 9 A $.z.n.z.n.z.z.z.z.n.z.z.h.V.~./.[.[.'.'.'.'.'.'.~.K.n.z.z.x.x.x.z.h.f.{ C : . . . . . . . . . ",
". . 9 m W 1.1.$.1.$.$.$.$.$.1.1.%.4.q.q.d.d.d.i.i.d.i.i.9.4.1.&.&.&.&.&.&.&.X.H a & . . . . . . . . . ",
"    1 g m G G G A A A A A A A A H H R / / W ` ` / / / / W H H Z A A A A A A C g 1 & . . . . . . .     ",
"      6 0 0 1 0 1 0 0 0 1 0 9 1 6 r r r r i i r u u r i r r 9 9 9 1 u 1 9 9 1 1 & % . . . . . .       ",
"        . . . . . . . . . . . . . . . . . . . . . . . . . . . . . . . . . . . . . . . . . . .         ",
"        . . . . . . . . . . . . . . . . . . . . . . . . . . . . . . . . . . . . . . . . . . .         "
};
