/* XPM */
static char *_c716c6354f14a58c38a66588053ac30qjJyEtAVHOivhzCW[] = {
/* columns rows colors chars-per-pixel */
"47 47 205 2 ",
"   c #FFCB8D",
".  c #FFCB8D",
"X  c #1D1F1D",
"o  c #1B221D",
"O  c #17201D",
"+  c #25221E",
"@  c #2C301D",
"#  c #35371E",
"$  c #1B2522",
"%  c #1D2A23",
"&  c #1E2E2B",
"*  c #202F24",
"=  c #3D2822",
"-  c #243426",
";  c #263928",
":  c #283C2A",
">  c #23352A",
",  c #3C3623",
"<  c #283836",
"1  c #373B3D",
"2  c #462922",
"3  c #472922",
"4  c #483727",
"5  c #553928",
"6  c #663827",
"7  c #7E3629",
"8  c #632F25",
"9  c #3F421F",
"0  c #2D432D",
"q  c #3C4524",
"w  c #27413C",
"e  c #29433D",
"r  c #324C32",
"t  c #334F38",
"y  c #365234",
"u  c #395536",
"i  c #3A5837",
"p  c #3D5D39",
"a  c #3F603B",
"s  c #43461F",
"d  c #5F432D",
"f  c #4E5021",
"g  c #5E5E22",
"h  c #535925",
"j  c #454A3C",
"k  c #425B34",
"l  c #544A2D",
"z  c #61442D",
"x  c #6C442B",
"c  c #755A2E",
"v  c #7B4431",
"b  c #7B5334",
"n  c #6B5531",
"m  c #42663E",
"M  c #456A3F",
"N  c #516935",
"B  c #5A7439",
"V  c #4F602F",
"C  c #686725",
"Z  c #726425",
"A  c #767A2A",
"S  c #7E773C",
"D  c #607B3B",
"F  c #2E4E48",
"G  c #3A5B43",
"H  c #31544C",
"J  c #3D594B",
"K  c #335750",
"L  c #355B52",
"P  c #385F51",
"I  c #2F514A",
"U  c #3F664B",
"Y  c #3C6451",
"T  c #3F6850",
"R  c #45494A",
"E  c #49594A",
"W  c #565D4C",
"Q  c #585252",
"!  c #604640",
"~  c #476D42",
"^  c #436D4F",
"/  c #576A4C",
"(  c #4A7344",
")  c #4F7A47",
"_  c #46714F",
"`  c #49754E",
"'  c #4E7B4D",
"]  c #527B45",
"[  c #527F49",
"{  c #5C7449",
"}  c #426C50",
"|  c #566451",
" . c #65674C",
".. c #657849",
"X. c #716348",
"o. c #79797C",
"O. c #87382A",
"+. c #82372A",
"@. c #88452D",
"#. c #9A4A2D",
"$. c #975736",
"%. c #8D4E3A",
"&. c #B94531",
"*. c #AD5838",
"=. c #B85639",
"-. c #A84D30",
";. c #866827",
":. c #986D2A",
">. c #817D25",
",. c #8B792C",
"<. c #83793E",
"1. c #95643D",
"2. c #BD762F",
"3. c #B1732D",
"4. c #AB6C3F",
"5. c #A3673C",
"6. c #A97536",
"7. c #AC7134",
"8. c #C74833",
"9. c #CA5932",
"0. c #C75839",
"q. c #D65839",
"w. c #DA5F3C",
"e. c #C2643F",
"r. c #855B44",
"t. c #8B6945",
"y. c #946945",
"u. c #8D744D",
"i. c #94754C",
"p. c #907550",
"a. c #BE6843",
"s. c #B77B64",
"d. c #CB6D42",
"f. c #C67849",
"g. c #D57349",
"h. c #E37544",
"j. c #E16F42",
"k. c #6D853A",
"l. c #7A8A38",
"z. c #7B923D",
"x. c #75903F",
"c. c #54834C",
"v. c #5A874A",
"b. c #5E8949",
"n. c #5B8345",
"m. c #638545",
"M. c #648B46",
"N. c #6B8D43",
"B. c #728F41",
"V. c #739040",
"C. c #8B8A29",
"Z. c #918C27",
"A. c #998E28",
"S. c #9A9429",
"D. c #9D9D2D",
"F. c #969329",
"G. c #899635",
"H. c #849439",
"J. c #8A9736",
"K. c #969B31",
"L. c #9A9B31",
"P. c #908D36",
"I. c #A3932A",
"U. c #AD932B",
"Y. c #A29E2B",
"T. c #A99B2C",
"R. c #B09F2D",
"E. c #AB8A34",
"W. c #A69735",
"Q. c #AB9233",
"!. c #A8A129",
"~. c #A5A02A",
"^. c #ABA43B",
"/. c #B0A234",
"(. c #B1A83D",
"). c #C89A3A",
"_. c #8F8C4B",
"`. c #A19C5D",
"'. c #9B837C",
"]. c #94917C",
"[. c #BDB678",
"{. c #C8894C",
"}. c #D4824B",
"|. c #C99F44",
" X c #EB874B",
".X c #EE8F4E",
"XX c #E0874B",
"oX c #E19447",
"OX c #E5975B",
"+X c #C9AD5D",
"@X c #C9A147",
"#X c #E1A05D",
"$X c #E79363",
"%X c #C7BA77",
"&X c #7E7E81",
"*X c #918F87",
"=X c #BBB7BC",
"-X c #DFAA8E",
";X c #E2B684",
":X c #E0A788",
">X c #D9BDB4",
",X c #D6C7BA",
"<X c #CCC6B3",
"1X c #E3CDAD",
"2X c #C3BEC4",
/* pixels */
"                                                                                              ",
"                                                                                              ",
"                                                                                              ",
"                                                                      . . . . . . . .         ",
"                                                                    O . O . O . . . . .       ",
"                                                                    : 0 0 0 0 0 - $ . .       ",
"                    . . . . . . . . . . . . . . . . . . . . . . . * 0 a a a a a 0 - . .       ",
"                  o o o o o o X o o o o o o o o o o o o o o o o o - u c.v.v.c.) i ; . .       ",
"                @ 9 f f f f f f f f f f f f f f f f f f f f f f f h N n.n.c.v.c.i - . . .     ",
"              . # h A A >.>.>.>.>.>.>.>.>.>.>.>.>.>.>.>.>.>.>.>.A l.k.n.v.c.v.c.i ; . . . . . ",
"            o + 9 C Z.!.!.!.!.!.!.!.!.!.!.!.!.!.!.!.!.!.!.!.!.!.!.L.z.M.c.c.c.M i : O O . . . ",
"          # s f g >.S.!.!.!.!.!.!.!.!.!.!.!.!.!.!.!.!.!.!.!.!.!.!.L.H.M.c.M a i y r 0 ; $ . . ",
"        . # g >.Z.A.!.!.!.!.!.!.!.!.!.!.!.!.!.!.!.!.!.!.!.!.!.!.!.K.l.M.) a 0 ; r a M r - . . ",
"      $ $ s C S.!.!.!.!.!.!.!.!.!.!.!.!.!.!.!.!.!.!.!.!.!.!.!.!.!.D.H.N.] p : @ r M c.p : . . ",
"    - : r V l.S.!.!.!.!.!.!.!.!.!.!.!.!.!.!.!.!.!.!.!.!.!.!.!.!.!.D.K.H.k.B m y m M [ p : . . ",
". . ; y M B l.S.!.!.!.!.!.!.!.!.!.!.!.!.!.!.!.!.!.!.!.!.!.!.!.!.!.Y.D.D.G.k.B M ] c.[ p : . . ",
". . : p [ N.H.D.!.!.!.!.!.!.!.!.!.!.!.!.!.!.!.!.!.!.!.!.!.!.!.!.!.!.!.!.D.l.n.) ) ) M i ; . . ",
". . : p [ N.J.Y.!.!.!.!.!.!.!.!.!.!.!.!.!.!.!.!.!.!.!.!.!.!.!.!.!.!.!.!.F.l.N u u u y 0 % . . ",
". . : p [ N.G.D.!.!.!.!.!.!.!.!.!.!.!.!.!.!.!.!.!.!.!.!.!.!.!.!.!.!.~.~.Z.C q * * * * o O . . ",
". . : p [ N.z.K.D.~.~.!.!.!.!.!.!.!.!.!.!.!.!.!.!.!.!.!.!.!.!.!.~.~.~.D.C.C q % o O . . . . . ",
". . : i [ M.B.z.J.K.~.~.!.!.!.!.!.!.!.!.!.!.!.!.!.!.!.!.!.!.!.!.!.~.K.J.l.B k r ; % . . . . O ",
". . : p [ v.b.M.V.J.D.!.!.T.!.!.!.!.T.T.!.!.!.!.!.!.!.!.!.!.!.!.T.L.H.B.m.n.( ~ y * . .       ",
". . : p [ c.c.[ ..H.I.U.I.A.C.C.Z.Z.A.I.U.U.U.U.I.A.A.Z.Z.Z.A.I.I.L.l.n.c.c.c.) i - . .       ",
". . : p [ c.` _ { <.6.7.;.Z g g g C ;.7.2.2.e.U.:.;.g g g g Z :.3.6.t.{ _ ` c.) i - . .       ",
". . : p [ ' _ Y  .r.=.-.@.4 - = @ # x -.9.9.9.9.#.6 # @ @ @ 5 @.*.*.r.| Y _ [ ) i - . .       ",
". . : p [ ' T Y Q r.e.=.r.d 1 & $ + 8 #.q.q.q.q.#.8 X o > 1 z %.0.=.r.E Y } ' [ i ; . .       ",
". . ; p c.' ^ Y | y.d.g.s.'.&XQ < + 6 *.j.h.h.j.#.6 X 1 Q &X*Xs.g.a.t.W Y } ' ' i ; . .       ",
". . : i ) ' ^ L | p.g.$X-X>X=X&XR + x 4. X X X X5.z o R *X2X>X:X$Xf.u.| Y } ' [ i - . .       ",
". . : p c.' _ T / i.{.#X;X1X<X].W 9 c 7.oXoXoXoX6.c #  .*X,X1X;XOX{.u./ Y _ c.) i - . .       ",
". . ; p ) c.' ` .._./.@X+X%X[.`.<.Z ,.E.).).).).E.,.C S `.;X%X+X@XQ._.] ` ' c.) i ; . .       ",
". . : p ' c.c.c.M.H.L./.(.(.(.W.S.S.T.T.R.R.R.R.T.S.F.D.^.^.^././.L.z.m.c.c.c.) i - . .       ",
". . ; u M ( ) c.M.z.J.K.K.K.K.K.L.K.K.D.K.K.K.K.K.K.K.K.K.K.K.K.L.G.x.M.c.' ( m y - .         ",
"    - : r i M [ b.N.x.z.z.z.z.z.z.z.z.z.z.z.z.z.z.z.V.z.V.V._.z.z.x.M.b.c.a i 0 0 *           ",
"      $ $ : p [ v.v.b.b.b.b.b.b.v.v.v.b.b.v.b.b.b.b.b.M.b.b.b.b.b.b.v.v.) i : o o             ",
"      . . * r m ~ ( ` ' ' ' ' ' c.c.' ' c.' ' ' ' ' ' ' ' ' ' ' c.` ( M a 0 % . .             ",
"      . . o - 0 y G U ^ } ^ } T T T T T T } } } } } } ^ } } } } T Y a y 0 - o . .             ",
"      . . . O O * e H P Y L Y L Y L L Y L Y L Y Y L L Y L L L L L I < & O O . . .             ",
"      2 2 2 2 3 4 t E Y L L L Y Y Y Y Y Y Y Y T T Y Y Y Y L L Y Y G j 3 2 2 2 2 =             ",
". . 2 8 +.O.O.O.v X.( _ T L L Y T ' ` ` ` ` ' ` ` ` ` } Y L Y T _ / n v O.O.O.7 8 = .         ",
". . 3 O.&.8.8.8.-.t...' } Y Y } ' c.c.c.c.c.c.c.c.c.c.' T L Y _ c...t.*.8.8.8.&.7 2 . .       ",
". . 5 @.0.w.w.j.a.t.{ ` } Y L T _ ' ( U a a a M ~ ` ' } Y L Y T ` ..i.e.w.w.w.0.@.2 . .       ",
". . 5 $.g.h.h.h.f.u./ Y Y L L Y Y Y G t 0 r 0 0 t G T Y Y L L Y ^  .i.f.h.h.h.d.%.4 . .       ",
". . 5 1.XX.X.X.Xf.p.| L L L L L L H w & O O O . & F L L L L L L L | i.}..X.XoX}.$.4 . .       ",
". . 5 b 4.4.y.a.y. .E K K L L L L K w & . . . . & w K K L L L K L E X.y.y.a.a.5.n 4 .         ",
"    , 5 d z z d l R K L L K L L L I w & . . . . & < K L L L K L L J j z z z z z 5 ,           ",
"      . . . O . & w I L K L L L K K w & . . . . & F K K K L L L L F < & . . . . .             ",
"      . . . . . $ < I L K L L L K I w $ . . . . & F K L L L L L L I < $ . . . . .             "
};
