/* XPM */
static char *_dfc31bcf0ad45ccd129d4ba0ff37dfakTzECZnpqJOLZxS4[] = {
/* columns rows colors chars-per-pixel */
"44 47 194 2 ",
"   c #FFCB8D",
".  c #141B1B",
"X  c #211E1D",
"o  c #18221E",
"O  c #22211E",
"+  c #2E221E",
"@  c #30221F",
"#  c #2F341E",
"$  c #3A3D1F",
"%  c #33371E",
"&  c #1D2923",
"*  c #1D2E2B",
"=  c #1A2520",
"-  c #232D28",
";  c #3D2621",
":  c #352F27",
">  c #233326",
",  c #263A29",
"<  c #283B29",
"1  c #253C38",
"2  c #383835",
"3  c #4B2A23",
"4  c #5B2D25",
"5  c #4B3928",
"6  c #4F3226",
"7  c #543D2A",
"8  c #503226",
"9  c #6C3227",
"0  c #633C2B",
"q  c #773428",
"w  c #2C422D",
"e  c #384527",
"r  c #28423D",
"t  c #2D4638",
"y  c #324B31",
"u  c #354339",
"i  c #365334",
"p  c #385636",
"a  c #3A5837",
"s  c #3D5D39",
"d  c #385639",
"f  c #3E603D",
"g  c #43461F",
"h  c #4C4B20",
"j  c #454924",
"k  c #5E4C23",
"l  c #5E5E22",
"z  c #494939",
"x  c #57513C",
"c  c #455A31",
"v  c #754F32",
"b  c #6F4D2B",
"n  c #44683E",
"m  c #446238",
"M  c #536732",
"N  c #5E793B",
"B  c #4E723F",
"V  c #696823",
"C  c #646625",
"Z  c #746A27",
"A  c #737124",
"S  c #767E2D",
"D  c #7A603F",
"F  c #617838",
"G  c #6F7228",
"H  c #3C4142",
"J  c #2F5049",
"K  c #32564E",
"L  c #39574B",
"P  c #355646",
"I  c #355B52",
"U  c #385F51",
"Y  c #3C6148",
"T  c #3A6251",
"R  c #494D4E",
"E  c #445C4E",
"W  c #555A4D",
"Q  c #535658",
"!  c #655F47",
"~  c #755E58",
"^  c #456B41",
"/  c #446E4F",
"(  c #4A6549",
")  c #59694D",
"_  c #58604F",
"`  c #4B7444",
"'  c #4F7A47",
"]  c #4A764E",
"[  c #4E7D4D",
"{  c #47714D",
"}  c #5E724B",
"|  c #517F49",
" . c #537B45",
".. c #416A50",
"X. c #4F6251",
"o. c #576451",
"O. c #637949",
"+. c #656646",
"@. c #656669",
"#. c #923D2D",
"$. c #A13F2E",
"%. c #9E5D2B",
"&. c #934C33",
"*. c #8E5830",
"=. c #A9412F",
"-. c #A04D33",
";. c #B64835",
":. c #B15C3A",
">. c #897828",
",. c #95613A",
"<. c #9B643B",
"1. c #837C3D",
"2. c #967A29",
"3. c #A87E2B",
"4. c #AE6A3B",
"5. c #AE6F34",
"6. c #D14B34",
"7. c #D45337",
"8. c #C74F35",
"9. c #C46630",
"0. c #D7623D",
"q. c #895845",
"w. c #9E5F4D",
"e. c #856540",
"r. c #8F6E47",
"t. c #906B47",
"y. c #8A724E",
"u. c #907F4A",
"i. c #957550",
"p. c #BF6B43",
"a. c #C36141",
"s. c #DE6940",
"d. c #C67749",
"f. c #DA7E54",
"g. c #D97845",
"h. c #E77F48",
"j. c #E47845",
"k. c #7A8C37",
"l. c #76913F",
"z. c #7B923C",
"x. c #6E8237",
"c. c #55844C",
"v. c #5D8849",
"b. c #5A8447",
"n. c #658A46",
"m. c #6A8C43",
"M. c #608948",
"N. c #728F40",
"B. c #868226",
"V. c #999428",
"C. c #9D9C2D",
"Z. c #949128",
"A. c #828538",
"S. c #8D9835",
"D. c #82933A",
"F. c #8A9735",
"G. c #959B31",
"H. c #9A9C30",
"J. c #8E912D",
"K. c #B7822D",
"L. c #A39C2A",
"P. c #A99D2A",
"I. c #A88632",
"U. c #B1943C",
"Y. c #A09B31",
"T. c #A6A02A",
"R. c #A8A129",
"E. c #AEA535",
"W. c #A9A335",
"Q. c #C59B38",
"!. c #9F9A54",
"~. c #898843",
"^. c #BE804D",
"/. c #989577",
"(. c #BCB570",
"). c #C28E46",
"_. c #D2844C",
"`. c #DB9544",
"'. c #E1894C",
"]. c #EE8E4E",
"[. c #C5A043",
"{. c #DCA057",
"}. c #C5AC58",
"|. c #C58B72",
" X c #ED9B66",
".X c #D1B674",
"XX c #929094",
"oX c #8D8C90",
"OX c #AF9790",
"+X c #EBB697",
"@X c #DDC9A2",
"#X c #CBC5A8",
"$X c #D1CBD1",
"%X c #EAD0C9",
/* pixels */
"                                                                      o . . . . . . . . ",
"                                                                      o . . . . . . . . ",
"                                                                    > < , , , , o o . . ",
"                    . . . . . . . . . . . . . . . . . . . . . . . & w i f s s a y > . . ",
"                    . . . . . . . . . . . . . . . . . . . . . . . & i f c.c.c.B a , . . ",
"                  % $ $ $ $ $ $ $ $ $ $ $ $ $ $ $ $ $ $ $ $ $ $ $ g s b.c.c.c.c.f , . . ",
"              . # h l V V V V V V V V V V V V V V V V V V V V V V C F b.c.c.c.c.s , . . ",
"            . . # l B.V.V.V.V.V.V.V.V.V.V.V.Z.V.Z.Z.V.V.V.V.V.V.Z.J.k.M.c.c.c.c.s , . . ",
"            # % h G Z.R.R.R.R.R.R.R.R.R.R.R.R.R.R.R.R.R.R.R.R.R.R.H.F.m.c.c.B f p w > > ",
"          % h l A B.V.R.R.R.R.R.R.R.R.R.R.R.R.R.R.R.R.R.R.R.R.R.R.H.z.m.c.f f y i i i p ",
"      . . % C B.V.V.R.R.R.R.R.R.R.T.R.R.T.R.R.R.R.R.R.R.R.R.R.R.T.H.z.x.c.f w > y f ' ` ",
"      & > j V V.R.R.R.R.R.R.R.R.T.T.R.R.R.R.R.R.R.R.R.R.R.R.R.R.T.H.F.l.b.s e > i n c.b.",
"    > w y M S V.R.R.R.R.R.R.R.R.T.R.R.R.R.R.R.R.R.R.R.R.R.R.R.R.R.T.G.F.x.F f i f B c.c.",
". . , p ^ F k.C.R.R.R.R.R.R.R.R.R.R.R.R.R.R.R.R.R.R.R.R.R.R.R.R.R.R.C.C.J.k.b.` ' c.c.c.",
". . < s c.m.D.T.R.R.R.R.R.R.R.R.R.R.R.R.R.R.R.R.R.R.R.R.R.R.R.R.R.R.R.R.C.k.x.' ' ' ' ' ",
". . < s c.m.D.L.R.R.R.R.R.R.R.R.R.R.R.R.R.R.R.R.R.R.R.R.R.R.R.R.R.R.R.R.V.k.M p p p p p ",
". . < s c.m.D.Y.R.R.R.R.R.R.R.R.R.R.R.R.R.R.R.R.R.R.R.R.R.R.R.R.R.R.R.R.V.G j , > > > > ",
". . < s | m.D.H.T.T.T.R.T.R.R.R.R.R.R.R.R.R.R.R.R.R.R.R.R.R.R.R.R.R.R.L.J.C e o o o . . ",
". . < s | M.N.D.J.H.T.R.R.R.R.R.R.R.R.R.R.R.R.R.R.R.R.R.R.R.R.R.R.L.H.S.z.F c w , o . . ",
". . < s | v.n.m.z.S.C.R.R.R.T.T.R.R.R.R.R.R.R.R.R.R.R.R.R.R.R.R.R.C.S.k.m.N B f y > . . ",
". . < s | c.c.c.n.D.C.P.P.P.L.L.L.L.L.P.P.P.P.P.P.P.L.L.P.L.L.P.P.Y.D.n.c.c.c.' s , . . ",
". . < s | [ [ [  .1.I.3.2.A A A A A >.I.K.3.K.K.3.>.A A A A A 2.3.I.1.O.] [ c.c.s , . . ",
". . < s | | ] ..) e.4.:.*.k 5 j g g b %.9.9.9.9.%.b g g g g k *.:.5.+.) T [ c.' s , . . ",
". . , m | | / U W *.;.=.q @ . X . O 4 =.6.6.6.6.$.4 X . . . ; q ;.;.&.W T { [ ' s , . . ",
". . < s | [ / I W q.a.a.w.~ Q H - O 0 &.0.0.0.0.%.4 X - H Q ~ w.a.a.w.Q T ..] c.a , . . ",
". . < s | [ / U Q i.d.f.|.OXXX@.2 O 0 4.j.j.j.j.%.9 - 2 @.XXOX|.f.d.t._ T / ' c.s , . . ",
". . < s c.] / U o.i._. X+X%X$XXXR - b 4.].].].].5.b o R XX$X%X+X X_.i.o.I { [ [ s , . . ",
". . < s | | { ..} ~.).{..X@X#X/.! j *.5.`.`.`.`.3.*.j +./.#X@X.X{.).u.} T ] c.[ s , . . ",
". . < s | c.[ ] O.~.U.[.}..X(.!.1.Z >.I.Q.Q.Q.Q.I.2.G A.!.(..X}.[.U.~.O.] [ c.| s , . . ",
". . < s | c.c.c.n.D.W.R.R.E.W.W.L.L.L.P.E.R.P.E.R.L.V.L.W.U.E.R.P.C.D.n.c.c.c.| s , . . ",
". . , y n ` ' c.M.l.F.G.G.G.G.G.G.G.C.G.G.G.G.G.G.G.G.G.G.G.G.G.G.F.l.M.c.[ ` ^ i , . . ",
"    > < y a ^ | v.m.N.z.z.z.z.z.z.z.z.z.z.z.z.D.z.N.z.z.z.z.z.z.z.l.m.v.| n a y < >     ",
"      & o w m ' b.v.v.v.M.v.v.M.v.M.M.v.v.M.M.M.M.v.M.M.v.M.M.M.M.v.v.c.' s w o o       ",
"      . . - y n ` ' [ [ c.[ [ | [ [ c.[ | [ [ c.[ | c.[ c.[ [ [ [ | ' ' n y > . o       ",
"      . . - , y d Y / { / / / { / / / / ..{ / ..{ ..../ { / / ../ / L a y , o . .       ",
"      . . . o o , r P T T T T T T T T T T T T T T T T T T T T T T I t , - o o . .       ",
"      + ; + ; - : u L U I I I I T T T T T T T T T T T T I I I T U L u : + @ @ @ +       ",
"    ; 4 9 9 9 9 0 x ( ..T T U T T / { { / / / / / ......T I T T / ( R b 9 9 9 9 4 ;     ",
". . 3 q $.=.=.=.&.~ O.] ..T U ..{ [ [ [ [ [ [ [ c.] [ ] ..U T ..] } D -.=.=.=.$.q 3 . . ",
". . 3 #.8.8.7.7.:.<.O.| ..T U ..] c.c.[ ' '  . .| | c.] ..T T ..[ O.,.:.7.7.7.8.#.3 . . ",
". . 6 &.0.s.s.s.9.i.} / T T T T / / ^ P s s a a s ..] ..T I U T T } r.p.s.s.0.0.&.5 . . ",
". . 5 -.g.h.h.h.d.y.o.T T T I T T U P w > > > , t d U T T I U I T ) i.d.h.h.'.g.*.5 . . ",
". . 7 ,.g.`.'.'.^.y.X.I I I I I I K r * . . . . * 1 K I I I I I T X.y.^.'.'.'._.,.7 . . ",
". . 8 v ,.t.<.t.e.+.E I I I I I I K r * . . . . * r K I I I I I I ..W ,.,.4.<.,.v 5 . . ",
"    : 5 7 7 7 7 z H K I I I I I I K r * . . . . * r K I I I I I I L z z 7 7 7 7 7 :     ",
"      . . . . . & 1 J I K I I I I K r * . . . . * r K I I I I I I J 1 & . . . . .       ",
"      . . . . . & 1 J I I I I I I K r * . . . . * r K I I I I U I J 1 & . . . . .       "
};
